<svg width="20" height="20" viewBox="0 0 20 20" fill="none" xmlns="http://www.w3.org/2000/svg">
<path d="M16.667 5.41659H14.8503C14.942 5.15825 15.0003 4.87492 15.0003 4.58325C15.0003 3.19992 13.8837 2.08325 12.5003 2.08325C11.6253 2.08325 10.867 2.53325 10.417 3.20825L10.0003 3.76659L9.58366 3.19992C9.13366 2.53325 8.37533 2.08325 7.50033 2.08325C6.11699 2.08325 5.00033 3.19992 5.00033 4.58325C5.00033 4.87492 5.05866 5.15825 5.15033 5.41659H3.33366C2.40866 5.41659 1.67533 6.15825 1.67533 7.08325L1.66699 16.2499C1.66699 17.1749 2.40866 17.9166 3.33366 17.9166H16.667C17.592 17.9166 18.3337 17.1749 18.3337 16.2499V7.08325C18.3337 6.15825 17.592 5.41659 16.667 5.41659ZM12.5003 3.74992C12.9587 3.74992 13.3337 4.12492 13.3337 4.58325C13.3337 5.04159 12.9587 5.41659 12.5003 5.41659C12.042 5.41659 11.667 5.04159 11.667 4.58325C11.667 4.12492 12.042 3.74992 12.5003 3.74992ZM7.50033 3.74992C7.95866 3.74992 8.33366 4.12492 8.33366 4.58325C8.33366 5.04159 7.95866 5.41659 7.50033 5.41659C7.04199 5.41659 6.66699 5.04159 6.66699 4.58325C6.66699 4.12492 7.04199 3.74992 7.50033 3.74992ZM16.667 16.2499H3.33366V14.5833H16.667V16.2499ZM16.667 12.0833H3.33366V7.08325H7.56699L5.83366 9.44159L7.18366 10.4166L10.0003 6.58325L12.817 10.4166L14.167 9.44159L12.4337 7.08325H16.667V12.0833Z" fill="#3C78F6"/>
</svg>
