<svg width="20" height="20" viewBox="0 0 20 20" fill="none" xmlns="http://www.w3.org/2000/svg">
<path d="M13.2533 10.9669L11.4856 12.7347L16.4824 17.7315L18.2502 15.9638L13.2533 10.9669Z" fill="#3C78F6"/>
<path d="M14.5833 8.4248C16.1917 8.4248 17.5 7.11647 17.5 5.50814C17.5 5.0248 17.3667 4.5748 17.1583 4.1748L14.9083 6.4248L13.6667 5.18314L15.9167 2.93314C15.5167 2.7248 15.0667 2.59147 14.5833 2.59147C12.975 2.59147 11.6667 3.8998 11.6667 5.50814C11.6667 5.8498 11.7333 6.1748 11.8417 6.4748L10.3 8.01647L8.81667 6.53314L9.40833 5.94147L8.23333 4.76647L10 2.9998C9.025 2.0248 7.44167 2.0248 6.46667 2.9998L3.51667 5.9498L4.69167 7.1248H2.34167L1.75 7.71647L4.7 10.6665L5.29167 10.0748V7.71647L6.46667 8.89147L7.05833 8.2998L8.54167 9.78314L2.36667 15.9581L4.13333 17.7248L13.6167 8.2498C13.9167 8.35814 14.2417 8.4248 14.5833 8.4248Z" fill="#3C78F6"/>
</svg>
