<svg width="24" height="48" viewBox="0 0 24 48" fill="none" xmlns="http://www.w3.org/2000/svg">
<path d="M7.616 31.8852C7.168 31.8852 6.78667 31.7279 6.472 31.4132C6.15733 31.0986 6 30.7176 6 30.2702V17.8852H5V16.8852H9V16.1152H15V16.8852H19V17.8852H18V30.2702C18 30.7302 17.846 31.1146 17.538 31.4232C17.23 31.7319 16.8453 31.8859 16.384 31.8852H7.616ZM17 17.8852H7V30.2702C7 30.4496 7.05767 30.5969 7.173 30.7122C7.28833 30.8276 7.436 30.8852 7.616 30.8852H16.385C16.5383 30.8852 16.6793 30.8212 16.808 30.6932C16.9367 30.5652 17.0007 30.4239 17 30.2692V17.8852ZM9.808 28.8852H10.808V19.8852H9.808V28.8852ZM13.192 28.8852H14.192V19.8852H13.192V28.8852Z" fill="#AFAFAF"/>
</svg>
