<svg width="54" height="35" viewBox="0 0 54 35" fill="none" xmlns="http://www.w3.org/2000/svg">
<path d="M13.2627 1.74609C18.8755 0.158016 21.6813 -0.634015 23.9189 0.615234C25.3953 1.43955 26.2412 2.94251 27.1035 5.48145C27.6264 4.0185 28.3292 2.87251 29.502 2.07324C30.7527 1.22112 32.1755 1.00612 33.8652 1.0957C35.524 1.18376 37.5953 1.57693 40.2158 2.07227L43.0283 2.60449C45.649 3.09986 47.7221 3.48929 49.2988 4.0127C50.9046 4.54583 52.1503 5.26472 53.0029 6.51562C53.8553 7.76653 54.0711 9.18982 53.9814 10.8799C53.8934 12.5387 53.4993 14.6097 53.0039 17.2305L51.9414 22.8535C51.446 25.4743 51.0556 27.5472 50.5322 29.124C49.9991 30.73 49.2804 31.9764 48.0293 32.8291C46.7784 33.6814 45.3551 33.8963 43.665 33.8066C42.0062 33.7185 39.9351 33.3254 37.3145 32.8301L34.5029 32.2988C31.882 31.8034 29.8092 31.4131 28.2324 30.8896C27.5647 30.668 26.9598 30.4134 26.4189 30.1025C25.1232 30.5395 23.5616 30.9848 21.6855 31.5156L18.709 32.3574C13.0961 33.9455 10.2894 34.7385 8.05176 33.4893C5.81412 32.2399 5.01977 29.4323 3.43164 23.8193L1.74707 17.8652C0.158923 12.2522 -0.635112 9.44459 0.616211 7.20801C1.86574 4.97074 4.67268 4.17589 10.2852 2.58789L13.2627 1.74609ZM33.752 3.23926C32.3021 3.16235 31.4188 3.36446 30.7109 3.84668C30.0037 4.32865 29.4927 5.07604 29.0352 6.4541C28.7678 7.25945 28.5352 8.22771 28.29 9.41016C28.3706 9.69377 28.4544 9.98479 28.5391 10.2842L30.2236 16.2383C31.8118 21.8513 32.6049 24.6579 31.3555 26.8955C30.8814 27.7446 30.1822 28.3848 29.1914 28.9404C30.5692 29.3655 32.3955 29.7158 34.9014 30.1895L37.7129 30.7207C40.3929 31.2273 42.2981 31.5845 43.7793 31.6631C45.229 31.74 46.1125 31.5379 46.8203 31.0557C47.5275 30.5737 48.0386 29.8263 48.4961 28.4482C48.9635 27.0403 49.3254 25.1356 49.832 22.4551L50.8955 16.832C51.4021 14.152 51.7583 12.2468 51.8369 10.7656C51.9138 9.31598 51.7126 8.43241 51.2305 7.72461C50.7484 7.01729 50.0004 6.50638 48.6221 6.04883C47.2141 5.58144 45.3095 5.21957 42.6289 4.71289L39.8174 4.18164C37.1375 3.67509 35.2331 3.31789 33.752 3.23926ZM18.8818 18.5947C18.6133 18.4448 18.2959 18.4075 18 18.4912L10.5576 20.5967C10.2617 20.6805 10.0114 20.879 9.86133 21.1475C9.71121 21.4161 9.67404 21.7332 9.75781 22.0293C9.84159 22.3253 10.0391 22.5764 10.3076 22.7266C10.5761 22.8766 10.8935 22.9137 11.1895 22.8301L18.6318 20.7236C18.9279 20.6399 19.179 20.4424 19.3291 20.1738C19.4792 19.9053 19.5163 19.588 19.4326 19.292C19.3488 18.9959 19.1504 18.7448 18.8818 18.5947ZM31.5566 19.001C31.6667 18.4187 32.2273 18.0356 32.8096 18.1455L39.8389 19.4736C40.4211 19.5837 40.8043 20.1453 40.6943 20.7275C40.5843 21.3099 40.0228 21.6931 39.4404 21.583L32.4111 20.2539C31.829 20.1438 31.4468 19.5831 31.5566 19.001ZM21.6631 11.3779C21.3945 11.2278 21.0773 11.1906 20.7812 11.2744L8.87305 14.6436C8.57725 14.7274 8.32681 14.925 8.17676 15.1934C8.02666 15.4619 7.98952 15.7792 8.07324 16.0752C8.157 16.3712 8.35451 16.6223 8.62305 16.7725C8.89155 16.9225 9.20889 16.9596 9.50488 16.876L21.4131 13.5068C21.7091 13.4231 21.9593 13.2246 22.1094 12.9561C22.2595 12.6875 22.2976 12.3703 22.2139 12.0742C22.1301 11.7782 21.9316 11.528 21.6631 11.3779ZM32.6191 13.377C32.7293 12.7947 33.2908 12.4124 33.873 12.5225L45.1191 14.6475C45.7014 14.7575 46.0846 15.3191 45.9746 15.9014C45.8645 16.4837 45.303 16.8669 44.7207 16.7568L33.4746 14.6309C32.8923 14.5208 32.5091 13.9593 32.6191 13.377Z" fill="#AAC2FF"/>
</svg>
