<svg width="36" height="36" viewBox="0 0 36 36" fill="none" xmlns="http://www.w3.org/2000/svg">
<g clip-path="url(#clip0_631_5302)">
<path d="M28.5 4.5H7.5C5.85 4.5 4.5 5.85 4.5 7.5V28.5C4.5 30.15 5.85 31.5 7.5 31.5H28.5C30.15 31.5 31.5 30.15 31.5 28.5V7.5C31.5 5.85 30.15 4.5 28.5 4.5ZM28.5 28.5H7.5V7.5H28.5V28.5Z" fill="white"/>
<path d="M16.875 11.58H9.375V13.83H16.875V11.58Z" fill="white"/>
<path d="M27 23.625H19.5V25.875H27V23.625Z" fill="white"/>
<path d="M27 19.875H19.5V22.125H27V19.875Z" fill="white"/>
<path d="M12 27H14.25V24H17.25V21.75H14.25V18.75H12V21.75H9V24H12V27Z" fill="white"/>
<path d="M21.135 16.425L23.25 14.31L25.365 16.425L26.955 14.835L24.84 12.705L26.955 10.59L25.365 9L23.25 11.115L21.135 9L19.545 10.59L21.66 12.705L19.545 14.835L21.135 16.425Z" fill="white"/>
</g>
<defs>
<clipPath id="clip0_631_5302">
<rect width="36" height="36" fill="white"/>
</clipPath>
</defs>
</svg>
