<svg width="20" height="20" viewBox="0 0 20 20" fill="none" xmlns="http://www.w3.org/2000/svg">
<path d="M5.83301 11.25C7.21634 11.25 8.33301 10.1333 8.33301 8.75C8.33301 7.36667 7.21634 6.25 5.83301 6.25C4.44967 6.25 3.33301 7.36667 3.33301 8.75C3.33301 10.1333 4.44967 11.25 5.83301 11.25ZM5.83301 7.91667C6.29134 7.91667 6.66634 8.29167 6.66634 8.75C6.66634 9.20833 6.29134 9.58333 5.83301 9.58333C5.37467 9.58333 4.99967 9.20833 4.99967 8.75C4.99967 8.29167 5.37467 7.91667 5.83301 7.91667ZM15.833 5.41667H9.16634V12.0833H2.49967V3.75H0.833008V16.25H2.49967V13.75H17.4997V16.25H19.1663V8.75C19.1663 6.90833 17.6747 5.41667 15.833 5.41667ZM17.4997 12.0833H10.833V7.08333H15.833C16.7497 7.08333 17.4997 7.83333 17.4997 8.75V12.0833Z" fill="#3C78F6"/>
</svg>
