<svg width="20" height="20" viewBox="0 0 20 20" fill="none" xmlns="http://www.w3.org/2000/svg">
<path d="M7.50033 17.5001C7.50033 17.9584 7.87533 18.3334 8.33366 18.3334H11.667C12.1253 18.3334 12.5003 17.9584 12.5003 17.5001V16.6667H7.50033V17.5001ZM10.0003 1.66675C6.78366 1.66675 4.16699 4.28341 4.16699 7.50008C4.16699 9.48341 5.15866 11.2251 6.66699 12.2834V14.1667C6.66699 14.6251 7.04199 15.0001 7.50033 15.0001H12.5003C12.9587 15.0001 13.3337 14.6251 13.3337 14.1667V12.2834C14.842 11.2251 15.8337 9.48341 15.8337 7.50008C15.8337 4.28341 13.217 1.66675 10.0003 1.66675ZM12.3753 10.9167L11.667 11.4167V13.3334H8.33366V11.4167L7.62533 10.9167C6.50033 10.1334 5.83366 8.85841 5.83366 7.50008C5.83366 5.20008 7.70033 3.33341 10.0003 3.33341C12.3003 3.33341 14.167 5.20008 14.167 7.50008C14.167 8.85841 13.5003 10.1334 12.3753 10.9167Z" fill="#3C78F6"/>
</svg>
