<svg width="20" height="20" viewBox="0 0 20 20" fill="none" xmlns="http://www.w3.org/2000/svg">
<path d="M13.8913 10.9416C15.033 11.7166 15.833 12.7666 15.833 14.1666V16.6666H19.1663V14.1666C19.1663 12.3499 16.1913 11.2749 13.8913 10.9416Z" fill="#3C78F6"/>
<path d="M12.4997 9.99992C14.3413 9.99992 15.833 8.50825 15.833 6.66659C15.833 4.82492 14.3413 3.33325 12.4997 3.33325C12.108 3.33325 11.7413 3.41659 11.3913 3.53325C12.083 4.39159 12.4997 5.48325 12.4997 6.66659C12.4997 7.84992 12.083 8.94159 11.3913 9.79992C11.7413 9.91659 12.108 9.99992 12.4997 9.99992Z" fill="#3C78F6"/>
<path d="M7.49967 9.99992C9.34134 9.99992 10.833 8.50825 10.833 6.66659C10.833 4.82492 9.34134 3.33325 7.49967 3.33325C5.65801 3.33325 4.16634 4.82492 4.16634 6.66659C4.16634 8.50825 5.65801 9.99992 7.49967 9.99992ZM7.49967 4.99992C8.41634 4.99992 9.16634 5.74992 9.16634 6.66659C9.16634 7.58325 8.41634 8.33325 7.49967 8.33325C6.58301 8.33325 5.83301 7.58325 5.83301 6.66659C5.83301 5.74992 6.58301 4.99992 7.49967 4.99992Z" fill="#3C78F6"/>
<path d="M7.49967 10.8333C5.27467 10.8333 0.833008 11.9499 0.833008 14.1666V16.6666H14.1663V14.1666C14.1663 11.9499 9.72467 10.8333 7.49967 10.8333ZM12.4997 14.9999H2.49967V14.1749C2.66634 13.5749 5.24967 12.4999 7.49967 12.4999C9.74967 12.4999 12.333 13.5749 12.4997 14.1666V14.9999Z" fill="#3C78F6"/>
</svg>
