<svg width="32" height="32" viewBox="0 0 32 32" fill="none" xmlns="http://www.w3.org/2000/svg">
<path d="M15.2343 6.09961C15.5161 5.42825 16.4837 5.42825 16.7655 6.09961L16.7665 6.10059L19.286 12.0479L19.4042 12.3252L19.704 12.3506L26.1444 12.8975H26.1474C26.8754 12.9556 27.179 13.8697 26.619 14.3545L21.7255 18.5947L21.498 18.792L21.5663 19.0859L23.0331 25.3789C23.2001 26.0968 22.4249 26.6614 21.7919 26.2783L16.2587 22.9316L16.0009 22.7754L15.7421 22.9307L10.2089 26.2637L10.2079 26.2646C9.57515 26.6476 8.80034 26.0838 8.96671 25.3662L10.4335 19.0723L10.5019 18.7783L10.2743 18.5811L5.38077 14.3408L5.28604 14.2451C4.86057 13.745 5.17067 12.9381 5.85342 12.8838H5.85538L12.2958 12.3369L12.5956 12.3115L12.7138 12.0342L15.2333 6.10156L15.2343 6.09961Z" stroke="#323232"/>
</svg>
