<svg width="36" height="36" viewBox="0 0 36 36" fill="none" xmlns="http://www.w3.org/2000/svg">
<g clip-path="url(#clip0_630_5230)">
<path d="M22.5 4.5H7.5C5.85 4.5 4.515 5.85 4.515 7.5L4.5 28.5C4.5 30.15 5.835 31.5 7.485 31.5H28.5C30.15 31.5 31.5 30.15 31.5 28.5V13.5L22.5 4.5ZM7.5 28.5V7.5H21V15H28.5V28.5H7.5ZM13.5 12C13.5 12.825 12.825 13.5 12 13.5C11.175 13.5 10.5 12.825 10.5 12C10.5 11.175 11.175 10.5 12 10.5C12.825 10.5 13.5 11.175 13.5 12ZM13.5 18C13.5 18.825 12.825 19.5 12 19.5C11.175 19.5 10.5 18.825 10.5 18C10.5 17.175 11.175 16.5 12 16.5C12.825 16.5 13.5 17.175 13.5 18ZM13.5 24C13.5 24.825 12.825 25.5 12 25.5C11.175 25.5 10.5 24.825 10.5 24C10.5 23.175 11.175 22.5 12 22.5C12.825 22.5 13.5 23.175 13.5 24Z" fill="white"/>
</g>
<defs>
<clipPath id="clip0_630_5230">
<rect width="36" height="36" fill="white"/>
</clipPath>
</defs>
</svg>
